<?xml version="1.0" encoding="UTF-8"?>
<svg id="Layer_2" data-name="Layer 2" xmlns="http://www.w3.org/2000/svg" viewBox="0 0 200 200">
  <defs>
    <style>
      .cls-1 {
        fill: #fff;
      }

      .cls-2 {
        fill: #231f20;
      }
    </style>
  </defs>
  <g id="Layer_2-2" data-name="Layer 2">
    <rect class="cls-2" x="0" y="0" width="200" height="200" rx="100" ry="100"/>
    <g>
      <path class="cls-1" d="M110.03,118.87l-26.62-68.98c-.12-.25,0-.37,.25-.5h32.24c.12,0,.25,.12,.37,.25l39.99,100.47c.12,.25,0,.37-.25,.5h-33.49c-.12,0-.25-.12-.37-.25l-4-10.5c0-.12-.25-.25-.37-.25h-32.36c-.25,0-.37-.12-.37-.37v-.12l6.75-19.37c0-.12,.25-.25,.37-.25h17.49c.25,0,.37-.12,.37-.37,0,0,0-.25,0-.25Z"/>
      <path class="cls-1" d="M43.68,149.98v-.12L79.29,54.76c.12-.25,.37-.37,.5-.25,.12,0,.25,.12,.25,.25l14.5,39.11v.37l-18.37,55.98c0,.12-.25,.25-.37,.25"/>
    </g>
  </g>
</svg>